<svg class="diagram-root" style="background: #f5f6f6" xmlns="http://www.w3.org/2000/svg" xmlns:xlink="http://www.w3.org/1999/xlink"><style>.diagram-root { font-family: "Helvetica Neue", sans-serif; font-size: 12px; } .t { overflow: visible; } .t-bg { y: 40; fill: #fff;   } .th { fill: #005aa0;   } .tht { fill: #fff; font-size: 14px;  } .tf { fill: #323c46; overflow: visible; } .tf.pk { fill: #005aa0; font-weight: bold; } .tf.fk { font-weight: bold; } .ty { fill: #adb1b5; font-weight: normal; text-anchor: end; } .r { fill: transparent; stroke: #c3c3c3; stroke-width: 1; } .l { stroke: 1; } .i { fill: #c2c7ce; stroke: #c2c7ce; } .i.ix { fill: #afb3b6; stroke: #000; } .fa { fill: transparent; overflow: visible; } .fa .bg.hover { fill: #f7f7f7; } .c { cy: 12; r: 4; stroke: #d2d2dc; fill: #d2d2dc; } .hr { fill: transparent; stroke: #323c46; stroke-opacity: 0.035; stroke-width: 13; } .dc { stroke: #fa5a3c; fill: #fa5a3c; } .x { stroke: white; stroke-width: 1; } .hl .th { fill: #1b9bff; } .hl .tht {  } .fhl .bg { fill: #e7f4ff; } .fhls .bg {  } .r.hl { stroke: #1b9bff; } .dim { opacity: 0.25; }</style><g class="drawing-wrapper" transform="translate(-33, -30) scale(1,1)"><g class="rs"><path d="M 537.51 117 m -1, 0 a 1,1 0 1,0 2,0 a 1,1 0 1,0 -2,0 M 537.51 117 m -0.5, 0 a 0.5,0.5 0 1,0 1,0 a 0.5,0.5 0 1,0 -1,0  M537.51 117 L537.51 117 549.51 117 M543.51 123 L543.51 123 543.51 111 M549.51 117 Q 574.64 117, 599.76 133.5 T 650 150 M 662 150 m -1, 0 a 1,1 0 1,0 2,0 a 1,1 0 1,0 -2,0 M 662 150 m -0.5, 0 a 0.5,0.5 0 1,0 1,0 a 0.5,0.5 0 1,0 -1,0  M662 150 L662 150 650 150 M 662 156 m -1, 0 a 1,1 0 1,0 2,0 a 1,1 0 1,0 -2,0 M 662 156 m -0.5, 0 a 0.5,0.5 0 1,0 1,0 a 0.5,0.5 0 1,0 -1,0  M662 156 L662 156 655 150 662 144 M 662 144 m -1, 0 a 1,1 0 1,0 2,0 a 1,1 0 1,0 -2,0 M 662 144 m -0.5, 0 a 0.5,0.5 0 1,0 1,0 a 0.5,0.5 0 1,0 -1,0 " id="h3572062790" class="r"></path><path d="M 662 175 m -1, 0 a 1,1 0 1,0 2,0 a 1,1 0 1,0 -2,0 M 662 175 m -0.5, 0 a 0.5,0.5 0 1,0 1,0 a 0.5,0.5 0 1,0 -1,0  M662 175 L662 175 650 175 M 662 181 m -1, 0 a 1,1 0 1,0 2,0 a 1,1 0 1,0 -2,0 M 662 181 m -0.5, 0 a 0.5,0.5 0 1,0 1,0 a 0.5,0.5 0 1,0 -1,0  M662 181 L662 181 655 175 662 169 M 662 169 m -1, 0 a 1,1 0 1,0 2,0 a 1,1 0 1,0 -2,0 M 662 169 m -0.5, 0 a 0.5,0.5 0 1,0 1,0 a 0.5,0.5 0 1,0 -1,0  M650 175 Q 632.29 175, 614.58 260.5 T 579.15 346 M 567.15 346 m -1, 0 a 1,1 0 1,0 2,0 a 1,1 0 1,0 -2,0 M 567.15 346 m -0.5, 0 a 0.5,0.5 0 1,0 1,0 a 0.5,0.5 0 1,0 -1,0  M567.15 346 L567.15 346 579.15 346 M573.15 352 L573.15 352 573.15 340" id="h1139284389" class="r"></path><path d="M 223.51 145 m -1, 0 a 1,1 0 1,0 2,0 a 1,1 0 1,0 -2,0 M 223.51 145 m -0.5, 0 a 0.5,0.5 0 1,0 1,0 a 0.5,0.5 0 1,0 -1,0  M223.51 145 L223.51 145 235.51 145 M 223.51 151 m -1, 0 a 1,1 0 1,0 2,0 a 1,1 0 1,0 -2,0 M 223.51 151 m -0.5, 0 a 0.5,0.5 0 1,0 1,0 a 0.5,0.5 0 1,0 -1,0  M223.51 151 L223.51 151 230.51 145 223.51 139 M 223.51 139 m -1, 0 a 1,1 0 1,0 2,0 a 1,1 0 1,0 -2,0 M 223.51 139 m -0.5, 0 a 0.5,0.5 0 1,0 1,0 a 0.5,0.5 0 1,0 -1,0  M235.51 145 Q 260.89 145, 286.26 131 T 337 117 M 349 117 m -1, 0 a 1,1 0 1,0 2,0 a 1,1 0 1,0 -2,0 M 349 117 m -0.5, 0 a 0.5,0.5 0 1,0 1,0 a 0.5,0.5 0 1,0 -1,0  M349 117 L349 117 337 117 M343 123 L343 123 343 111" id="h1397587031" class="r"></path><path d="M 223.51 170 m -1, 0 a 1,1 0 1,0 2,0 a 1,1 0 1,0 -2,0 M 223.51 170 m -0.5, 0 a 0.5,0.5 0 1,0 1,0 a 0.5,0.5 0 1,0 -1,0  M223.51 170 L223.51 170 235.51 170 M 223.51 176 m -1, 0 a 1,1 0 1,0 2,0 a 1,1 0 1,0 -2,0 M 223.51 176 m -0.5, 0 a 0.5,0.5 0 1,0 1,0 a 0.5,0.5 0 1,0 -1,0  M223.51 176 L223.51 176 230.51 170 223.51 164 M 223.51 164 m -1, 0 a 1,1 0 1,0 2,0 a 1,1 0 1,0 -2,0 M 223.51 164 m -0.5, 0 a 0.5,0.5 0 1,0 1,0 a 0.5,0.5 0 1,0 -1,0  M235.51 170 Q 270.14 170, 304.76 258 T 374 346 M 386 346 m -1, 0 a 1,1 0 1,0 2,0 a 1,1 0 1,0 -2,0 M 386 346 m -0.5, 0 a 0.5,0.5 0 1,0 1,0 a 0.5,0.5 0 1,0 -1,0  M386 346 L386 346 374 346 M380 352 L380 352 380 340" id="h2286254435" class="r"></path><path d="M 715 481 m -1, 0 a 1,1 0 1,0 2,0 a 1,1 0 1,0 -2,0 M 715 481 m -0.5, 0 a 0.5,0.5 0 1,0 1,0 a 0.5,0.5 0 1,0 -1,0  M715 481 L715 481 703 481 M 715 487 m -1, 0 a 1,1 0 1,0 2,0 a 1,1 0 1,0 -2,0 M 715 487 m -0.5, 0 a 0.5,0.5 0 1,0 1,0 a 0.5,0.5 0 1,0 -1,0  M715 487 L715 487 708 481 715 475 M 715 475 m -1, 0 a 1,1 0 1,0 2,0 a 1,1 0 1,0 -2,0 M 715 475 m -0.5, 0 a 0.5,0.5 0 1,0 1,0 a 0.5,0.5 0 1,0 -1,0  M703 481 Q 672.04 481, 641.08 413.5 T 579.15 346 M 567.15 346 m -1, 0 a 1,1 0 1,0 2,0 a 1,1 0 1,0 -2,0 M 567.15 346 m -0.5, 0 a 0.5,0.5 0 1,0 1,0 a 0.5,0.5 0 1,0 -1,0  M567.15 346 L567.15 346 579.15 346 M573.15 352 L573.15 352 573.15 340" id="h3177548053" class="r"></path><path d="M 234.8 458 m -1, 0 a 1,1 0 1,0 2,0 a 1,1 0 1,0 -2,0 M 234.8 458 m -0.5, 0 a 0.5,0.5 0 1,0 1,0 a 0.5,0.5 0 1,0 -1,0  M234.8 458 L234.8 458 246.8 458 M 234.8 464 m -1, 0 a 1,1 0 1,0 2,0 a 1,1 0 1,0 -2,0 M 234.8 464 m -0.5, 0 a 0.5,0.5 0 1,0 1,0 a 0.5,0.5 0 1,0 -1,0  M234.8 464 L234.8 464 241.8 458 234.8 452 M 234.8 452 m -1, 0 a 1,1 0 1,0 2,0 a 1,1 0 1,0 -2,0 M 234.8 452 m -0.5, 0 a 0.5,0.5 0 1,0 1,0 a 0.5,0.5 0 1,0 -1,0  M246.8 458 Q 278.6 458, 310.4 402 T 374 346 M 386 346 m -1, 0 a 1,1 0 1,0 2,0 a 1,1 0 1,0 -2,0 M 386 346 m -0.5, 0 a 0.5,0.5 0 1,0 1,0 a 0.5,0.5 0 1,0 -1,0  M386 346 L386 346 374 346 M380 352 L380 352 380 340" id="h3000826536" class="r"></path></g><g class="hrs"></g><g class="ts"><svg width="188.51" height="100" x="349" y="60" id="h475896179" class="t"><rect height="40" width="188.51" class="th"></rect><text x="13" y="25" class="tht">departments</text><rect height="60" width="188.51" class="t-bg" y="40"></rect><text x="13" y="61" class="tf pk">dept_no<tspan x="175.51" class="ty">VARCHAR(10)</tspan></text><path d="M7,14A2,2 0 0,1 5,12A2,2 0 0,1 7,10A2,2 0 0,1 9,12A2,2 0 0,1 7,14M12.65,10C11.83,7.67 9.61,6 7, 6A6, 6 0 0, 0 1, 12A6, 6 0 0, 0 7, 18C9.61, 18 11.83, 16.33 12.65, 14H17V18H21V14H23V10H12.65Z" class="i pk" transform="translate(76.37914062499999, 48) scale(0.65)"></path><text x="13" y="86" class="tf">dept_name<tspan x="175.51" class="ty">VARCHAR(30)</tspan></text></svg><svg width="168.51" height="175" x="55" y="88" id="h1676682957" class="t"><rect height="40" width="168.51" class="th"></rect><text x="13" y="25" class="tht">dept_manager</text><rect height="135" width="168.51" class="t-bg" y="40"></rect><text x="13" y="61" class="tf fk">dept_no<tspan x="155.51" class="ty">VARCHAR(10)</tspan></text><text x="13" y="86" class="tf fk">emp_no<tspan x="155.51" class="ty">INT</tspan></text><text x="13" y="111" class="tf">from_date<tspan x="155.51" class="ty">DATE</tspan></text><text x="13" y="136" class="tf">to_date<tspan x="155.51" class="ty">DATE</tspan></text><text x="13" y="161" class="tf">employees</text></svg><svg width="181.15" height="200" x="386" y="289" id="h1639608377" class="t"><rect height="40" width="181.15" class="th"></rect><text x="13" y="25" class="tht">employees</text><rect height="160" width="181.15" class="t-bg" y="40"></rect><text x="13" y="61" class="tf pk">emp_no<tspan x="168.15" class="ty">INT</tspan></text><path d="M7,14A2,2 0 0,1 5,12A2,2 0 0,1 7,10A2,2 0 0,1 9,12A2,2 0 0,1 7,14M12.65,10C11.83,7.67 9.61,6 7, 6A6, 6 0 0, 0 1, 12A6, 6 0 0, 0 7, 18C9.61, 18 11.83, 16.33 12.65, 14H17V18H21V14H23V10H12.65Z" class="i pk" transform="translate(128.819921875, 48) scale(0.65)"></path><text x="13" y="86" class="tf">birth_date<tspan x="168.15" class="ty">DATE</tspan></text><text x="13" y="111" class="tf">first_name<tspan x="168.15" class="ty">VARCHAR(30)</tspan></text><text x="13" y="136" class="tf">last_name<tspan x="168.15" class="ty">VARCHAR(30)</tspan></text><text x="13" y="161" class="tf">gender<tspan x="168.15" class="ty">CHAR(1)</tspan></text><text x="13" y="186" class="tf">hire_date<tspan x="168.15" class="ty">DATE</tspan></text></svg><svg width="131.15" height="150" x="715" y="424" id="h2472833127" class="t"><rect height="40" width="131.15" class="th"></rect><text x="13" y="25" class="tht">salaries</text><rect height="110" width="131.15" class="t-bg" y="40"></rect><text x="13" y="61" class="tf fk">emp_no<tspan x="118.15" class="ty">INT</tspan></text><text x="13" y="86" class="tf">salary<tspan x="118.15" class="ty">MONEY</tspan></text><text x="13" y="111" class="tf">from_date<tspan x="118.15" class="ty">DATE</tspan></text><text x="13" y="136" class="tf">to_date<tspan x="118.15" class="ty">DATE</tspan></text></svg><svg width="143.8" height="150" x="91" y="401" id="h311790747" class="t"><rect height="40" width="143.8" class="th"></rect><text x="13" y="25" class="tht">titles</text><rect height="110" width="143.8" class="t-bg" y="40"></rect><text x="13" y="61" class="tf fk">emp_no<tspan x="130.8" class="ty">INT</tspan></text><text x="13" y="86" class="tf">title<tspan x="130.8" class="ty">VARCHAR(30)</tspan></text><text x="13" y="111" class="tf">from_date<tspan x="130.8" class="ty">DATE</tspan></text><text x="13" y="136" class="tf">to_date<tspan x="130.8" class="ty">DATE</tspan></text></svg><svg width="168.51" height="150" x="662" y="93" id="h1090417462" class="t"><rect height="40" width="168.51" class="th"></rect><text x="13" y="25" class="tht">dept_emp</text><rect height="110" width="168.51" class="t-bg" y="40"></rect><text x="13" y="61" class="tf fk">dept_no<tspan x="155.51" class="ty">VARCHAR(10)</tspan></text><text x="13" y="86" class="tf fk">emp_no<tspan x="155.51" class="ty">INT</tspan></text><text x="13" y="111" class="tf">from_date<tspan x="155.51" class="ty">DATE</tspan></text><text x="13" y="136" class="tf">to_date<tspan x="155.51" class="ty">DATE</tspan></text></svg></g></g><text class="qdbd-link" x="10" y="20">www.quickdatabasediagrams.com</text></svg>